<svg viewBox="0 0 16 16" fill="none" xmlns="http://www.w3.org/2000/svg">
<rect width="16" height="16" fill="#1E1E1E"/>
<path fill-rule="evenodd" clip-rule="evenodd" d="M11.7348 2.71057H11.9377H15.3634V3.11648H12.1407V6.18962L13.961 6.16979L13.9701 6.57573L12.1407 6.59566V9.57899H15.3634V9.9849H11.9377H11.7348V9.78195V6.60008L4.21802 6.68195L3.85001 9.97822L3.82111 10.2425C3.79633 10.4765 3.78395 10.643 3.78395 10.7421C3.78395 10.877 3.81973 10.9444 3.8913 10.9444C4.11978 10.9444 4.34963 10.6857 4.58086 10.1682C4.65518 10.2122 4.69234 10.2562 4.69234 10.3003C4.69234 10.3994 4.58086 10.5934 4.35789 10.8825C4.04683 11.2789 3.75504 11.4771 3.48252 11.4771C3.27056 11.4771 3.16459 11.3312 3.16459 11.0394C3.16459 10.932 3.1811 10.7187 3.21413 10.3994L3.25543 10.036L3.28846 9.73047C3.10127 10.1434 2.7971 10.5384 2.37593 10.9155C1.95752 11.2899 1.61205 11.4771 1.33953 11.4771C0.951402 11.4771 0.757335 11.1729 0.757335 10.5645C0.757335 9.76901 1.02573 9.05468 1.5625 8.42156C2.09928 7.78843 2.70488 7.47187 3.3793 7.47187C3.41233 7.47187 3.46601 7.47462 3.54033 7.48013L3.58162 7.12503C3.59849 6.97509 3.62118 6.82947 3.64969 6.68814L0.349644 6.72409L0.340546 6.31815L3.75151 6.28099C3.90707 5.76512 4.15048 5.31424 4.48176 4.92836C4.98551 4.34478 5.56495 4.053 6.2201 4.053C6.377 4.053 6.51189 4.06676 6.62475 4.09429L6.03842 4.693C5.90904 4.64896 5.75627 4.62694 5.58009 4.62694C5.16719 4.62694 4.85888 4.77146 4.65518 5.06049C4.47818 5.31165 4.34898 5.71661 4.26758 6.27537L11.7348 6.19404V2.91352V2.71057ZM3.47427 8.07059C3.24304 7.94396 3.03108 7.88065 2.83839 7.88065C2.43099 7.88065 2.09516 8.11188 1.83089 8.57433C1.56663 9.03679 1.4345 9.62449 1.4345 10.3374C1.4345 10.6953 1.53911 10.8742 1.74831 10.8742C2.00156 10.8742 2.29886 10.687 2.64019 10.3127C3.08338 9.83095 3.34489 9.23911 3.42472 8.53717L3.47427 8.07059ZM6.7478 10.4506C6.79597 10.4833 6.82005 10.5219 6.82005 10.5662C6.82005 10.6259 6.75839 10.7281 6.63507 10.8726C6.30557 11.2541 5.97993 11.4449 5.65813 11.4449C5.46159 11.4449 5.29973 11.3668 5.17255 11.2107C5.04538 11.0547 4.98179 10.8552 4.98179 10.6124C4.98179 10.1731 5.1475 9.72896 5.47893 9.27999C5.81228 8.8291 6.14179 8.60365 6.46743 8.60365C6.70251 8.60365 6.82005 8.72986 6.82005 8.98228C6.82005 9.26554 6.68228 9.54205 6.40673 9.81182C6.13311 10.0816 5.7988 10.2695 5.40378 10.3754C5.44232 10.8398 5.62538 11.072 5.95295 11.072C6.27667 11.072 6.54162 10.8649 6.7478 10.4506ZM5.41534 10.0228C5.47122 10.0421 5.52229 10.0517 5.56853 10.0517C5.80747 10.0517 6.01654 9.97849 6.19574 9.83205C6.37494 9.6856 6.46454 9.51411 6.46454 9.31757C6.46454 9.09212 6.34989 8.97939 6.12059 8.97939C5.95488 8.97939 5.80458 9.07863 5.66969 9.2771C5.53674 9.47364 5.45195 9.72221 5.41534 10.0228ZM7.01082 11.2888L7.40969 10.9622C7.55998 11.1221 7.74882 11.2021 7.97619 11.2021C8.25367 11.2021 8.39241 11.0682 8.39241 10.8003C8.39241 10.6519 8.26523 10.4448 8.01088 10.1789L7.84613 10.0084C7.60527 9.75594 7.48483 9.55168 7.48483 9.39561C7.48483 9.17208 7.58118 8.98421 7.77387 8.83199C7.96849 8.67976 8.20742 8.60365 8.49068 8.60365C8.64483 8.60365 8.81343 8.63255 8.99649 8.69036L8.64965 9.01119C8.5032 8.90135 8.34038 8.84644 8.16118 8.84644C7.95114 8.84644 7.84613 8.93411 7.84613 9.10946C7.84613 9.23471 7.96271 9.41873 8.19586 9.66152L8.37506 9.85228C8.64098 10.1298 8.77393 10.3533 8.77393 10.5228C8.77393 10.7656 8.65735 10.9805 8.4242 11.1674C8.19104 11.3524 7.92224 11.4449 7.61779 11.4449C7.40198 11.4449 7.19965 11.3928 7.01082 11.2888ZM10.6989 10.5286C10.7509 10.5595 10.7769 10.5893 10.7769 10.6182C10.7769 10.6876 10.6931 10.8244 10.5255 11.0287C10.3 11.3061 10.091 11.4449 9.89828 11.4449C9.75762 11.4449 9.68728 11.3514 9.68728 11.1645C9.68728 11.0855 9.71619 10.8427 9.77399 10.4361L9.88672 9.64996L9.91562 9.45052L9.93874 9.29155C9.94838 9.22411 9.9532 9.16727 9.9532 9.12102C9.9532 9.02468 9.92622 8.9765 9.87227 8.9765C9.72197 8.9765 9.56011 9.14222 9.38669 9.47364C9.35008 9.44089 9.33177 9.40813 9.33177 9.37537C9.33177 9.25783 9.43968 9.09983 9.65549 8.90135C9.87323 8.70288 10.0467 8.60365 10.1758 8.60365C10.3203 8.60365 10.3925 8.70385 10.3925 8.90424C10.3925 8.94278 10.3848 9.02179 10.3694 9.14125L10.3434 9.33491C10.3415 9.35032 10.3309 9.42836 10.3116 9.56903L10.1931 10.3957L10.1642 10.5806C10.1391 10.7637 10.1266 10.8861 10.1266 10.9477C10.1266 11.0306 10.1507 11.072 10.1989 11.072C10.3607 11.072 10.5274 10.8909 10.6989 10.5286ZM10.1179 8.23079L10.3607 7.63249C10.5765 7.54385 10.7538 7.42149 10.8926 7.26542C10.9118 7.29239 10.9215 7.32033 10.9215 7.34924C10.9215 7.60744 10.6536 7.90129 10.1179 8.23079Z" fill="white"/>
</svg>
